# xmcd
#
# Track frame offsets:
#  150
#  17126
#  36512
#  51642
#  67636
#  80482
#  96901
#  111557
#  126366
#  141845
#
# Disc length: 2105 seconds
#
# Revision: 0
# Processed by: cddbd v1.5.1PL0 Copyright (c) Steve Scherf et al.
# Submitted via: Collectorz.com Music Collector 6.9
#
DISCID=9308370a
DTITLE=Various Artist - Farther Down The Road 10 Year Anniversary Collection
DYEAR=1900
DGENRE=Contemporary Country
TTITLE0=The Judds (Wynonna and Nomi) - Turn It Loose
TTITLE1=Hal Ketchum - Mama Knows The Highway
TTITLE2=Cathy Mattea - Eighteen Wheels And A Dozen Roses
TTITLE3=Wariner, Steve - All Roads Lead To you
TTITLE4=Black, Clint - Killin' Time
TTITLE5=Whitley, Keith - I'm No Stranger To The Rain
TTITLE6=Greenwood, Lee - Dixie Road
TTITLE7=Loveless, Patty - Blue Side Of Town
TTITLE8=Heart, Restless - That Rock Won't Roll
TTITLE9=Alabama - The Closer You Get
EXTD=
EXTT0=
EXTT1=
EXTT2=
EXTT3=
EXTT4=
EXTT5=
EXTT6=
EXTT7=
EXTT8=
EXTT9=
PLAYORDER=
